<?xml version="1.0" standalone="no"?>
<!DOCTYPE svg PUBLIC "-//W3C//DTD SVG 20010904//EN"
 "http://www.w3.org/TR/2001/REC-SVG-20010904/DTD/svg10.dtd">
<svg version="1.0" xmlns="http://www.w3.org/2000/svg"
 width="300.000000pt" height="269.000000pt" viewBox="0 0 300.000000 269.000000"
 preserveAspectRatio="xMidYMid meet">
<metadata>
Created by potrace 1.10, written by Peter Selinger 2001-2011
</metadata>
<g transform="translate(0.000000,269.000000) scale(0.100000,-0.100000)"
fill="#3ca2a2" stroke="none">
<path d="M1415 2676 c-27 -7 -90 -32 -140 -56 -104 -48 -116 -54 -450 -207
-137 -64 -286 -132 -330 -152 -44 -21 -134 -62 -199 -92 -166 -75 -244 -149
-277 -264 -12 -39 -12 -1081 0 -1120 32 -113 111 -189 267 -259 60 -27 152
-69 204 -94 52 -24 208 -96 345 -159 138 -63 277 -127 310 -143 330 -155 367
-159 572 -63 107 49 100 46 458 210 138 64 286 132 330 152 44 21 134 62 199
92 147 66 218 126 262 221 l29 63 3 500 c2 350 0 518 -8 560 -27 139 -103 222
-276 299 -60 27 -152 69 -204 94 -52 24 -207 96 -345 159 -137 63 -277 127
-310 143 -286 135 -325 145 -440 116z m475 -187 c168 -77 440 -202 604 -277
334 -153 382 -185 427 -284 l24 -53 0 -530 0 -530 -24 -53 c-47 -104 -83 -126
-552 -341 -233 -107 -507 -233 -609 -280 -180 -83 -187 -86 -260 -85 l-75 0
-310 142 c-171 79 -445 205 -609 280 -334 153 -382 185 -427 284 l-24 53 0
530 0 530 24 53 c47 104 83 126 552 341 233 107 496 228 584 269 292 137 268
138 675 -49z"/>
<path d="M1240 1970 l0 -80 265 0 266 0 -3 -502 c-3 -498 -3 -503 -25 -548
-54 -108 -137 -159 -268 -168 -141 -8 -254 25 -352 104 -23 19 -44 34 -47 34
-7 0 -86 -107 -86 -117 0 -12 98 -87 145 -111 141 -71 348 -90 495 -44 146 46
233 131 277 270 23 73 23 74 23 657 l0 585 -345 0 -345 0 0 -80z"/>
</g>
</svg>
